<?xml version="1.0" encoding="UTF-8"?>
<svg xmlns="http://www.w3.org/2000/svg" viewBox="-0.18966050063268938 -524.1679718105894 1750.787168147419 828.0793420729801" role="img" aria-label="Engage">
  <defs>
    <linearGradient id="engageGradient" gradientUnits="userSpaceOnUse" x1="0" y1="0" x2="7003.148672589676" y2="0">
      <stop offset="0%" stop-color="#ffffff"/>
      <stop offset="25%" stop-color="#60a5fa"/>
      <stop offset="50%" stop-color="#a855f7"/>
      <stop offset="75%" stop-color="#ec4899"/>
      <stop offset="100%" stop-color="#ffffff"/>
      <animateTransform attributeName="gradientTransform" type="translate" from="0 0" to="-5252.361504442257 0" dur="12s" repeatCount="indefinite" />
    </linearGradient>
  </defs>
  <g fill="url(#engageGradient)">
    <path d="M487.20-511.00C486.50-516.60 482.30-516.60 478.80-516.60C478.10-516.60 475.30-513.80 473.20-513.80C470.40-513.10 465.50-513.10 462.00-513.10C431.20-512.40 400.40-507.50 370.30-504.00C338.10-499.80 305.90-497.70 273.70-494.20L260.40-492.10C260.40-494.90 259.70-497.00 258.30-499.10C253.40-504.00 250.60-508.90 245.00-513.10C235.20-520.10 219.10-527.10 207.20-522.90C190.40-517.30 198.10-500.50 189.00-487.90C177.80-471.10 137.90-480.90 119.00-473.90C110.60-471.10 107.10-466.90 106.40-459.20C102.20-427.00 144.20-422.80 166.60-426.30C161.70-410.90 105.70-241.50 105.00-241.50C106.40-243.60 107.80-245.70 108.50-247.80C106.40-240.80 101.50-221.90 98.00-221.20C98.70-221.90 100.10-227.50 100.10-227.50C98.70-228.20 98.00-222.60 97.30-222.60C93.80-221.90 89.60-219.80 85.40-219.10C76.30-218.40 64.40-219.10 55.30-216.30C55.30-215.60 54.60-215.60 53.90-215.60C28.00-203.70 58.10-177.80 77.00-177.80C66.50-153.30 61.60-128.10 51.80-103.60C47.60-91.00 42.00-79.10 37.10-66.50L29.40-46.90C29.40-45.50 26.60-35 27.30-34.30L23.80-23.80C24.50-25.90 26.60-32.90 26.60-32.90C23.10-32.20 16.80-4.20 15.40-0.70C9.10 10.50 1.40 19.60 0 32.90C-2.80 65.10 25.90 91.00 53.20 102.20C97.30 120.40 146.30 83.30 179.90 58.10C196.70 44.80 211.40 30.80 226.80 16.80C237.30 7.00 250.60-6.30 255.50-19.60C261.10-34.30 254.10-37.10 241.50-30.80C214.90-16.80 189.00-0.70 162.40 13.30C135.10 28.00 102.90 49.00 72.10 54.60C71.40 51.80 74.20 43.40 72.10 41.30C70 39.20 67.20 54.60 67.20 52.50C67.90 39.90 74.20 28.70 78.40 16.10C84.70-2.10 91.00-20.30 98.00-38.50C109.90-72.10 121.80-105.00 132.30-139.30L140.70-165.20C142.80-170.80 146.30-189.70 150.50-193.20C158.20-198.80 175.70-197.40 184.80-198.80C196.70-200.20 201.60-205.80 211.40-207.20C224.70-209.30 237.30-212.10 250.60-213.50C257.60-214.90 268.80-215.60 275.10-219.80C281.40-222.60 278.60-224.00 284.20-225.40C294.70-228.20 309.40-225.40 318.50-233.10C324.10-238.00 326.20-244.30 317.80-247.10C316.40-247.80 314.30-244.30 312.20-243.60L303.10-243.60C287-242.90 271.60-240.80 255.50-238.70C225.40-235.20 194.60-233.10 163.80-229.60C168.00-241.50 206.50-350.00 221.20-385.70C214.90-371.00 203.70-342.30 195.30-319.20C201.60-337.40 208.60-354.90 215.60-373.10L230.30-410.20C231.70-414.40 239.40-442.40 243.60-443.10C242.20-441.00 242.20-439.60 242.20-437.50C243.60-438.90 245.00-441.00 245.00-443.10L257.60-445.20C264.60-447.30 272.30-449.40 279.30-450.80C291.90-452.20 305.20-452.20 317.80-457.10C322.70-458.50 321.30-459.90 328.30-462.00C333.90-464.10 340.20-464.10 345.80-464.80C359.80-466.90 373.80-471.10 387.80-473.90C401.10-476.00 415.10-479.50 427.00-485.10C427.70-485.80 428.40-487.20 427.70-488.60C430.50-490.00 432.60-490.00 434.70-488.60C440.30-490.70 446.60-490.00 452.90-491.40C460.60-493.50 488.60-497.70 487.20-511.00ZM129.50-261.80C120.40-240.10 110.60-221.20 101.50-200.20L134.40-290.50C140-308.70 148.40-326.20 155.40-344.40C147-318.50 140.70-287.70 129.50-261.80ZM163.80-235.20C164.50-231.70 163.10-229.60 161.00-229.60L170.10-252.00ZM225.40-394.80C225.40-394.10 224.70-392.70 224.70-392.70C224.70-393.40 225.40-394.10 225.40-394.80ZM225.40-394.80C226.10-395.50 226.10-396.20 226.80-396.20C226.10-396.20 226.10-395.50 225.40-394.80ZM223.30-390.60L221.20-385.70Z" />
    <path d="M615.30-166.60C611.80-183.40 602-172.20 597.80-165.90C588-154.00 572.60-142.80 560.70-131.60C544.60-117.60 528.50-102.90 511.70-89.60C503.30-82.60 492.80-72.80 482.30-69.30C480.90-68.60 476-67.90 476-67.20L475.30-67.90C475.30-67.90 474.60-79.10 475.30-79.80C476-88.90 478.80-98.00 481.60-106.40C482.30-107.80 490-131.60 488.60-131.60L485.10-127.40C489.30-135.80 494.90-144.20 499.80-153.30C488.60-142.80 480.90-130.90 475.30-116.20C472.50-109.20 464.80-96.60 463.40-86.10C464.80-101.50 475.30-121.80 480.20-130.90C487.20-145.60 494.90-162.40 504-176.40C520.80-201.60 557.20-224.70 546-259.70C536.20-292.60 510.30-293.30 490-274.40C480.20-265.30 396.90-158.90 399-157.50C399-157.50 406-165.90 415.10-177.80L373.80-117.60C373.10-117.60 380.80-129.50 380.10-130.20C379.40-130.90 374.50-126.00 373.80-123.20C375.20-137.90 380.10-152.60 381.50-167.30C382.20-172.90 381.50-177.10 382.90-182.70C385.70-191.80 388.50-201.60 392.70-209.30C395.50-214.90 401.10-219.80 402.50-225.40C405.30-234.50 404.60-238.00 410.90-245.70C416.50-252.70 424.90-259.70 429.80-266C441.70-283.50 421.40-295.40 410.20-297.50C401.10-298.90 392-299.60 383.60-294.70C374.50-289.10 376.60-284.20 374.50-276.50C372.40-266.70 365.40-255.50 361.90-246.40C356.30-231.70 351.40-217.00 346.50-202.30C340.90-187.60 335.30-173.60 331.10-158.90C327.60-147 328.30-135.80 326.90-124.60C325.50-112.00 323.40-103.60 329.70-92.40C336.70-80.50 355.60-62.30 368.20-77.70L371-72.10C382.90-98.00 401.10-121.10 415.80-146.30C422.10-157.50 433.30-165.20 442.40-177.10C455-193.90 466.20-210.70 480.20-226.80C478.10-223.30 469-207.20 469.70-206.50C471.10-207.20 471.80-208.60 473.20-210.00L463.40-190.40C462.70-191.10 466.20-196.00 464.80-196.00C459.90-197.40 445.20-158.20 443.80-154.70C438.90-139.30 438.20-125.30 436.80-109.20C436.10-101.50 434.70-93.80 434.70-86.10C434.70-78.40 435.40-70.70 438.90-63.00C441-58.80 443.80-53.20 447.30-49.70C448-49.70 455.70-42.70 452.20-48.30L456.40-44.10L454.30-45.50C453.60-42.00 479.50-28.00 483.70-26.60C503.30-20.30 524.30-42.70 536.90-56.00C553.70-74.20 567.70-95.20 583.10-114.80C591.50-126.00 618.10-149.80 615.30-166.60Z" />
    <path d="M921.20-168.00C918.40-188.30 898.10-168.00 891.80-162.40C879.90-153.30 867.30-145.60 855.40-136.50C839.30-125.30 823.90-112.70 808.50-100.10C802.20-95.20 763.70-59.50 760.20-61.60C771.40-96.60 791-131.60 809.90-164.50C827.40-193.90 791.70-219.10 763-206.50C754.60-203.00 745.50-187.60 739.90-179.90C726.60-161.00 714-140.70 700.70-121.80L681.80-93.10C679.70-90.30 666.40-70.70 668.50-70.70C669.20-70.70 669.90-71.40 670.60-72.10C656.60-53.20 636.30-29.40 618.10-16.10C592.90 3.50 607.60-55.30 611.10-65.10C621.60-96.60 639.10-126.70 658-154.00C660.80-158.20 699.30-207.20 711.90-219.10C699.30-208.60 661.50-161.70 655.20-154.00C677.60-186.20 713.30-237.30 755.30-244.30L746.20-240.80C754.60-242.20 773.50-241.50 773.50-241.50L771.40-243.60C774.90-241.50 777-238.70 781.20-238.70C798.70-239.40 794.50-267.40 786.80-275.80C776.30-289.80 751.10-295.40 734.30-291.20C729.40-289.80 727.30-287 721.70-286.30C715.40-284.90 710.50-286.30 702.80-282.10C688.80-275.10 676.90-265.30 665.70-254.10C658.70-247.80 591.50-175.70 596.40-172.90C597.80-172.90 599.20-174.30 599.90-175.00L588-157.50C587.30-158.20 590.80-163.10 590.10-163.10C587.30-164.50 573.30-141.40 572.60-139.30C565.60-128.10 560-115.50 557.90-102.20C555.10-87.50 554.40-71.40 554.40-56.70C554.40-46.90 555.10-37.10 557.90-28.00C558.60-26.60 567-10.50 565.60-17.50L567.70-12.60C567-12.60 566.30-13.30 565.60-14.00C562.80-9.10 589.40 14.70 594.30 16.80C604.80 21.70 614.60 18.90 625.10 12.60C648.20-1.40 664.30-28.00 680.40-50.40C697.90-74.20 717.50-98.70 732.20-125.30L716.80-70.70C710.50-50.40 707-20.30 694.40-4.20C681.10 11.90 661.50 25.90 646.80 39.90C631.40 53.90 616 67.90 602 84.00C581.70 107.10 562.80 132.30 545.30 157.50C525 186.90 511.00 218.40 525 252.70C537.60 282.80 566.30 310.80 601.30 302.40C631.40 294.70 642.60 269.50 655.90 245.70C697.90 172.90 718.90 88.90 742.70 8.40C746.20-3.50 748.30-15.40 756.70-24.50C765.10-32.90 775.60-40.60 785.40-48.30C805-65.80 825.30-81.90 846.30-98.70L903-142.10C912.10-149.10 924-154.70 921.20-168.00ZM673.40 70C673.40 69.30 669.90 79.10 670.60 77.70C655.90 120.40 641.90 163.10 622.30 203.70C612.50 224.00 566.30 308.00 549.50 246.40C538.30 207.20 576.10 162.40 597.80 133.70C624.40 99.40 651.70 68.60 683.20 39.20C680.40 49.70 676.90 60.20 673.40 70ZM670.60 119.00C666.40 134.40 661.50 149.80 655.20 164.50C648.90 176.40 640.50 186.90 634.20 198.10C646.80 170.80 660.10 144.90 670.60 116.90ZM635.60-140C631.40-132.30 625.10-125.30 619.50-117.60C625.10-130.20 630.70-141.40 641.20-152.60C643.30-154.70 646.80-158.20 648.90-161.70ZM634.90-121.80L628.60-112.70C632.80-120.40 637.70-128.10 643.30-135.80Z" />
    <path d="M1226.40-168.70C1225.70-184.10 1213.10-170.80 1208.90-165.20C1199.80-151.90 1191.40-137.90 1183-124.60C1164.10-95.90 1145.20-67.20 1123.50-39.90C1051.40 49.00 1101.80-109.20 1096.20-107.80C1093.40-107.10 1091.30-96.60 1090.60-94.50C1096.20-119.70 1106.70-149.80 1120-174.30C1127.70-189.70 1136.80-202.30 1122.80-219.10C1096.90-250.60 1066.80-221.90 1050-200.20C1043-226.80 1029-266 994.70-266C979.30-266 970.20-258.30 959.70-249.20C953.40-245.00 948.50-244.30 942.90-239.40C933.80-233.10 927.50-223.30 921.20-214.90C897.40-179.90 880.60-135.80 872.90-95.20C869.40-75.60 868-53.90 873.60-34.30C877.10-23.10 889.70 2.10 905.80 0C906.50 0 905.10-0.70 903-2.10C912.80 0.70 924-0.70 932.40-6.30C933.10-4.90 924.70-1.40 924.70-1.40C932.40 10.50 989.80-58.80 994-65.10C1003.10-77.70 1009.40-91.00 1017.80-104.30C1024.10-114.10 1033.90-126.70 1040.90-137.20C1040.20-132.30 1040.20-126.00 1040.20-126.00C1027.60-86.10 1015.70-42.70 1032.50-1.40C1040.20 19.60 1059.10 39.20 1082.90 35C1103.90 31.50 1121.40 11.20 1134-4.90C1149.40-23.10 1162.70-43.40 1176-64.40C1187.20-83.30 1197.70-102.20 1206.80-123.20C1212.40-136.50 1227.80-152.60 1226.40-168.70ZM1025.50-163.80C1022-158.90 1018.50-154.00 1015.70-149.10L997.50-123.20C985.60-105.70 973-88.90 959.70-72.80C956.20-67.90 939.40-46.20 932.40-48.30C921.90-51.80 933.10-88.20 934.50-93.80C936.60-103.60 973.70-211.40 983.50-213.50C970.90-214.20 930.30-87.50 928.20-77.00C933.80-111.30 946.40-144.90 960.40-176.40C968.10-192.50 985.60-235.20 1008.70-235.20C1021.30-235.20 1024.10-209.30 1026.20-200.90C1025.50-202.30 1019.20-222.60 1018.50-221.90C1015-219.10 1029-180.60 1029-175.00C1029-169.40 1029-169.40 1025.50-163.80ZM1041.60-129.50C1041.60-129.50 1043.70-139.30 1044.40-141.40L1047.90-146.30ZM1031.10-172.90L1031.10-179.90C1033.20-177.10 1033.20-175.00 1031.10-172.90Z" />
    <path d="M1532.30-168.00C1529.50-188.30 1509.20-168.00 1502.90-162.40C1491-153.30 1478.40-145.60 1466.50-136.50C1450.40-125.30 1435-112.70 1419.60-100.10C1413.30-95.20 1374.80-59.50 1371.30-61.60C1382.50-96.60 1402.10-131.60 1421-164.50C1438.50-193.90 1402.80-219.10 1374.10-206.50C1365.70-203.00 1356.60-187.60 1351-179.90C1337.70-161.00 1325.10-140.70 1311.80-121.80L1292.90-93.10C1290.80-90.30 1277.50-70.70 1279.60-70.70C1280.30-70.70 1281-71.40 1281.70-72.10C1267.70-53.20 1247.40-29.40 1229.20-16.10C1204 3.50 1218.70-55.30 1222.20-65.10C1232.70-96.60 1250.20-126.70 1269.10-154.00C1271.90-158.20 1310.40-207.20 1323-219.10C1310.40-208.60 1272.60-161.70 1266.30-154.00C1288.70-186.20 1324.40-237.30 1366.40-244.30L1357.30-240.80C1365.70-242.20 1384.60-241.50 1384.60-241.50L1382.50-243.60C1386-241.50 1388.10-238.70 1392.30-238.70C1409.80-239.40 1405.60-267.40 1397.90-275.80C1387.40-289.80 1362.20-295.40 1345.40-291.20C1340.50-289.80 1338.40-287 1332.80-286.30C1326.50-284.90 1321.60-286.30 1313.90-282.10C1299.90-275.10 1288-265.30 1276.80-254.10C1269.80-247.80 1202.60-175.70 1207.50-172.90C1208.90-172.90 1210.30-174.30 1211-175.00L1199.10-157.50C1198.40-158.20 1201.90-163.10 1201.20-163.10C1198.40-164.50 1184.40-141.40 1183.70-139.30C1176.70-128.10 1171.10-115.50 1169-102.20C1166.20-87.50 1165.50-71.40 1165.50-56.70C1165.50-46.90 1166.20-37.10 1169-28.00C1169.70-26.60 1178.10-10.50 1176.70-17.50L1178.80-12.60C1178.10-12.60 1177.40-13.30 1176.70-14.00C1173.90-9.10 1200.50 14.70 1205.40 16.80C1215.90 21.70 1225.70 18.90 1236.20 12.60C1259.30-1.40 1275.40-28.00 1291.50-50.40C1309-74.20 1328.60-98.70 1343.30-125.30L1327.90-70.70C1321.60-50.40 1318.10-20.30 1305.50-4.20C1292.20 11.90 1272.60 25.90 1257.90 39.90C1242.50 53.90 1227.10 67.90 1213.10 84.00C1192.80 107.10 1173.90 132.30 1156.40 157.50C1136.10 186.90 1122.10 218.40 1136.10 252.70C1148.70 282.80 1177.40 310.80 1212.40 302.40C1242.50 294.70 1253.70 269.50 1267 245.70C1309 172.90 1330 88.90 1353.80 8.40C1357.30-3.50 1359.40-15.40 1367.80-24.50C1376.20-32.90 1386.70-40.60 1396.50-48.30C1416.10-65.80 1436.40-81.90 1457.40-98.70L1514.10-142.10C1523.20-149.10 1535.10-154.70 1532.30-168.00ZM1284.50 70C1284.50 69.30 1281 79.10 1281.70 77.70C1267 120.40 1253 163.10 1233.40 203.70C1223.60 224.00 1177.40 308.00 1160.60 246.40C1149.40 207.20 1187.20 162.40 1208.90 133.70C1235.50 99.40 1262.80 68.60 1294.30 39.20C1291.50 49.70 1288 60.20 1284.50 70ZM1281.70 119.00C1277.50 134.40 1272.60 149.80 1266.30 164.50C1260 176.40 1251.60 186.90 1245.30 198.10C1257.90 170.80 1271.20 144.90 1281.70 116.90ZM1246.70-140C1242.50-132.30 1236.20-125.30 1230.60-117.60C1236.20-130.20 1241.80-141.40 1252.30-152.60C1254.40-154.70 1257.90-158.20 1260-161.70ZM1246-121.80L1239.70-112.70C1243.90-120.40 1248.80-128.10 1254.40-135.80Z" />
    <path d="M1749.30-256.90C1749.30-256.20 1749.30-256.20 1748.60-256.90L1748.60-257.60C1737.40-276.50 1722.70-250.60 1716.40-241.50C1704.50-225.40 1693.30-210 1680.70-195.30C1670.20-182.70 1659.00-170.10 1650.60-156.80C1650.60-155.40 1649.20-151.90 1649.20-151.90C1646.40-147.70 1642.20-144.20 1638.70-140C1632.40-133.70 1626.10-126.70 1619.10-120.40C1608.60-110.60 1549.80-55.30 1542.10-91C1537.90-108.50 1543.50-130.20 1547.00-147C1549.10-156.10 1551.20-164.50 1552.60-173.60C1554.00-180.60 1551.90-187.60 1555.40-194.60C1557.50-198.80 1558.20-198.10 1563.10-199.50L1575.00-203.70C1582.70-206.50 1590.40-209.30 1597.40-213.50C1607.90-219.80 1617.70-227.50 1626.80-235.20C1648.50-253.40 1671.60-275.10 1680.70-302.40C1685.60-317.80 1686.30-334.60 1676.50-347.90C1667.40-359.80 1652.00-366.10 1638.00-368.90C1600.20-375.90 1571.50-354.20 1549.80-325.50C1523.20-292.60 1504.30-252.00 1495.20-210.70C1490.30-190.40 1487.50-170.10 1484.00-149.10C1480.50-128.10 1478.40-108.50 1489.60-88.90C1488.90-95.90 1487.50-102.20 1487.50-108.50C1487.50-112 1488.90-115.50 1488.90-118.30C1488.90-119.70 1487.50-123.90 1487.50-126C1487.50-132.30 1488.90-137.20 1490.30-143.50C1491.00-149.80 1490.30-156.10 1491.00-162.40C1491.70-169.40 1494.50-175 1497.30-181.30C1499.40-186.90 1500.10-191.80 1502.20-197.40C1504.30-202.30 1505.70-207.90 1507.80-213.50C1508.50-217 1512.00-221.20 1514.10-225.40C1512.00-219.10 1507.80-213.50 1506.40-207.90C1504.30-199.50 1505.70-190.40 1505.00-182C1503.60-172.90 1500.80-163.80 1499.40-154C1498.00-144.90 1493.80-136.50 1492.40-127.40C1491.00-119 1488.20-112.70 1488.90-104.30C1488.90-99.40 1489.60-94.50 1490.30-90.30C1491.00-84.70 1494.50-81.20 1498.00-77C1509.90-63 1526.00-51.80 1544.20-46.90C1556.80-43.40 1568.00-44.10 1579.90-50.40C1596.70-59.50 1611.40-73.50 1624.00-86.80C1635.90-100.10 1645.00-114.80 1655.50-128.80C1665.30-141.40 1677.20-153.30 1687.00-165.90L1724.80-214.90L1746.50-243.60C1750.00-247.80 1752.10-251.30 1749.30-256.90ZM1575.70-249.20C1576.40-250.60 1576.40-251.30 1576.40-251.30C1586.90-273.70 1594.60-297.50 1609.30-319.20L1621.90-336C1624.70-339.50 1629.60-345.80 1634.50-347.20C1645.00-349.30 1647.80-331.10 1647.10-324.10L1644.30-309.40C1643.60-305.20 1645.00-302.40 1644.30-298.90C1642.90-294.70 1639.40-292.60 1637.30-289.10L1625.40-273.70C1609.30-254.80 1589.00-238.70 1566.60-226.80C1570.10-234.50 1572.20-242.20 1575.70-249.20Z" />
  </g>
</svg>
